<?xml version="1.0" encoding="UTF-8"?>
<svg xmlns="http://www.w3.org/2000/svg" viewBox="0 0 1711.36 424.5" aria-hidden="true">
  <g fill="#fff">
    <path d="M1679.14,412.84l-31.07,9.03-.36-74.07,10.37-10.01c2.97-2.87-1.24-12.47-3.48-18.04l-34.23-85.04c-1.05-2.61-5.76-6.1-7.45-6.91-2.54-1.22-9.11,7.4-9.11,10.2l-.08,93.9c0,4.68,12.61,13.38,15.54,16.07l-.08,73.68-29.85-9.36-35.6,11.3-1.06-77.69,22.52-5.9c.1-37.96.99-76.49-2-114.73-.88-11.22-1.21-17.38-.24-28.04,3.24-35.64,2.36-70.7,2.3-106.43l-22.21-4.59.5-74.71,37.78,10.12,28.02-7.17-.23,68.64c-2.86,3.8-15.8,11.53-15.85,17.26-.16,17.32.02,49.51,3.38,75.32,15.21-22.24,24.6-40.69,37.45-62.02,7.51-12.47,2.4-17.79-.75-31.17-4.86-20.65-2.34-42.6-2.13-68.67l31.75,7.72,30.31-7.15,1.53,65.04c.12,5.03-15.83,10.45-17.98,14.03l-55.45,92.48,60.75,151.79,19.23,9.06-.37,74.89-31.84-8.85v.02Z" />
    <path d="M1240.66,345.04l.4,76.77-33.92-7.16-30.52,6.54-.62-73.7,15.42-11.02-.36-105.22c-18.59-1.96-33.44-2-52.57-.36l-.82,105.42,20.14,11.05-.37,73.23c-23.01-5.27-37.55-5.37-64.35,1.67l.02-76.45,20.33-8.83c-.39-35.79,1.72-72.76-2.72-107.23-1.93-15-2.11-22.26-.06-37.16,4.42-32.03,2.42-65.15,2.84-99.04l-20.55-8.06.33-73.41,34.27,11.33,29.43-9.64,1.08,71.05-20.14,7.62.57,103.34c22.24,2.05,36.54,2.2,55.3-1.61l.42-95.64c.02-5.19-11.51-10.92-17.82-13.16l.22-73.13,33.1,10.82,30.78-9.15,1.4,71.26-21.52,6.85c-.4,35.64-1.38,72.61,1.86,108.65,1.04,11.59,1.05,17.72-.07,30.02-2.86,31.54-2.18,69.63-2.3,102.46-.02,4.81,10.87,9.22,20.81,11.9h-.01Z" />
    <path d="M905.27,412.49l-35.1,9.49-1.4-70.47c-.08-4,9.65-10.53,16.49-14.18l-45.5-111.85c-10.09,6.91-15.68,16.33-15.7,24.56l-.16,87.49,19.54,9.32-.35,75.39-30.22-10.11-34.39,9.91.89-76.47c8.45-3.65,16.82-7.47,21.14-10.08-.85-35.44,2.3-76.59-3.21-110.5-2.34-14.41-1.63-16.36.32-29.8,4.87-33.6,2.33-69.08,2.49-103.26l-21.47-5.56.63-74.59,35.45,10.1,27.94-7.43.94,69.76-20.02,9.14c.26,30.31-.46,54.86,3.7,87.76,20.43-30.9,33-55.42,48.88-83.83-.44-1.95-10.51-12.37-10.55-15.91l-.69-67.03,32.33,7.17,30.45-7.57,1.25,70.09-18.95,8.56-54.69,95.55,60.42,149.62,18.22,9.42-.11,75.31-28.59-9.99h.02Z" />
    <path d="M694.31,423.74c-21.98.36-44.97-7.93-48.4-30.44-6.74-44.28-5.98-88.48-5.08-134.27.31-15.75-2.83-31.17-8.54-44.8,19.68-53.02-2.26-103.62,15.3-174.75,6.49-26.27,40.6-31.29,63.15-26.08,18.6,4.3,33.89,17.04,34.67,36.74l5.82,147.49c.57,14.48.39,20.66-.21,35.37l-6.05,147.6c-1.09,26.57-22.94,42.7-50.67,43.14h.01ZM719.59,230.5c-2.02-13.83-1.69-20.26.17-34.11,4.05-30.2,3.02-60.73.99-91.83-.63-9.6-15.64-20.89-23.59-22.5-46.39-9.39-23.78,91.56-27.12,150.93-1.67,29.69-1.62,57.14-1.59,87.88.01,12.82,14.4,24.89,26.06,25.57,39.06,2.3,28.53-92.34,25.09-115.95h-.01Z" />
    <path d="M582.3,409.53c-19.47,19.56-58.81,20.41-76.66-.13-23.1-26.57-8.45-123.21-16.78-175.16-2.65-16.52-4.3-21.69-.66-37.87,11.14-49.47-7.58-134.78,16.94-167.14,18.47-24.38,58.54-23.69,79.98-3.57,25.29,23.72,10,110.44,17.84,174.84,1.47,12.07,1.29,16.97-.15,29.07-8.22,69.01,9.29,150.03-20.5,179.96h-.01ZM573.47,230.09c-8.88-10.68-8.34-22.91.47-33.53l-.92-88.72c-.14-13.67-16.84-25.92-27.48-25.85-14.27.09-25.28,11.34-26.36,27-1.95,28.19-3.42,57.99,1.53,85.24,7.25,39.93-8.99,43.39-1.07,126.98,1.28,13.48,14.27,24.29,25.69,24.22,43.13-.26,24.7-83.5,28.15-115.34h0Z" />
    <path d="M1307.4,262.75l-8.68,74,18.57,10.49-.29,75.92c-23.35-10.18-32.42-10.81-57.62.11-1.24-23.11-1.6-54.37-.26-75.93,8.76-6.03,19.63-13.92,20.05-24.58,1.14-29.1,9.55-57.42,5.83-84.42-2.45-17.78-.6-23.4,3.97-39.25,9.25-32.07,13.48-67.08,19.97-101.61l-14.89-14.47-.04-70.76,37.41,10.63,35.31-10.53,1.17,71.64-13.94,10.26c-3.91,2.88-.98,16.6.33,21.85,7.16,28.67,5.25,60.8,15.45,86.81,6.23,15.88,4.14,19.06,2.14,36.99-3.35,30.04,7.06,65.41,10.06,97.42l18.47,9.16-.15,75.15-29.22-7.33-30.38,7.25-.6-74.49,18.12-9.63-7.59-73.21-43.2-1.5v.03ZM1344.51,224.19c-3.76-33.9-6.64-57.17-12.03-88.63-15.01,29.8-18.01,60.09-15.08,92.24.65,7.08,28.21,6.31,27.11-3.61h0Z" />
    <path d="M1052.53,409.95c-17.22,20.29-48.2,16.89-67.64,1.84l-25.13,11.94-1.16-139.46c-.04-4.68,7.7-13.06,12.19-12.69,15.33,1.28,5.76,21.82,13.64,65.33,1.56,8.62,18.11,18.07,26.04,16.77,35.55-5.81,31.41-88.79-8.08-123-10.57-9.16-13.95-15.77-19.78-28.78-11.46-25.58-23.16-49.1-24.74-77.58-1.92-34.58-6.22-99.84,33.83-111.94,11.84-3.58,28.03,3.38,39.26,10.98l24.96-9.94-.24,152.98c0,6.07-23.26,5.91-23.52-.43l-2.4-59.74c-.3-7.39-12.91-17.43-19.75-18.28-38.42-4.78-27.71,77.11,1.75,102.28,12.57,10.74,15.42,21.22,22.83,34.31,22.8,40.27,37.58,78.15,32.7,126.95-1.81,18.09-.78,41.97-14.77,58.45h.01Z" />
    <path d="M1504.6,329.41l.46-50.52c6.27-2.77,20.26-2.57,28.96-.51.36,33.65,1.47,66.83-1.94,98.16-3.54,32.5-27.26,49.41-56.85,46.98-80.6-6.64-26.13-151.21-54.66-212.08,2.65-8.94,8.44-25.03,8.48-34.39l.43-110.45c.06-15.3,8.96-36.22,18.84-45,17.75-15.79,37.39-13.16,52.93,4.24l32.73-14.98.5,147.53-29.65.82-.29-57.9c-.05-10.43-9.7-22.49-19.88-24.25-7.89-1.37-23.82,8.35-25.32,19.43-4.23,31.15-3.53,72.93-.99,103.1.35,4.14,11.08,11.57,9.53,13.89l-9.83,14.64c5.03-7.49-19.92,126.45,22.9,125.61,11.61-.23,23.54-11.44,23.66-24.32h-.01Z" />
    <path d="M431.09,333.89l3.03-52.96c.4-6.98,23.9-6.41,24.07.21,1.58,62.54,13.92,143.78-51.21,142.74-76.28-1.22-45.09-107.23-55.84-194.47-1.64-13.27-1.69-19.09-.1-32.31,8.09-67.67-14.96-179.2,45.46-185.81,10.63-1.16,23.96,7.17,33.64,13.62l28.2-11.42.66,141.72c-3.81,4.39-19.64,5.08-22.72,2.39l-5.24-62.31c-.62-7.39-14.98-17.89-22.19-18.3-43.9-2.47-22.54,124.77-25.26,120.36l9.74,15.78c1.73,2.81-9.46,11.45-9.83,16.13-2.28,28.95-2.58,70.61.23,103.44.78,9.15,14.82,19.4,21.93,20.91,7.9,1.68,24.78-8.39,25.43-19.72h0Z" />
  </g>
</svg>
