<?xml version="1.0" encoding="UTF-8"?>
<svg xmlns="http://www.w3.org/2000/svg" viewBox="0 0 1711.36 424.5" aria-hidden="true">
  <path
    fill="#fff"
    d="M292.24,356.23c-8.62,17.39-34.91,49.03-78.35,68.28,59.1-48.48-26.84-104.02,10.37-132.58-9.72-2.16-20.54,4.69-22.74,14.41-1.4,6.2.35,12.63.64,18.98.41,8.96-2.35,18.24-8.48,24.79-6.13,6.54-15.81,9.93-24.46,7.57-8.65-2.36-15.51-10.92-14.92-19.87.5-7.56,5.62-13.86,9.38-20.43,8.6-15.05,10.42-33.81,4.85-50.22-5.56-16.42-18.41-30.21-34.39-36.92,10.92,25.05,7.99,55.65-7.49,78.17-11.22,16.33-28.4,28.51-36.67,46.52-6.24,13.58-6.63,29.74-1.06,43.6,3.55,8.83,9.49,16.65,16.92,22.59-26.29-8.95-52.39-26.7-67.83-49.18-16.04-23.36-23.82-52.11-21.7-80.22,1.86-24.59,10.98-48.25,12.71-72.85,1.73-24.6-6.51-52.7-29.03-63.56,17.53-5.67,38.73,6.16,42.76,23.87,1.66,7.29.74,14.88,1.36,22.32.62,7.44,3.32,15.43,9.86,19.22,8.82,5.12,21.07-.32,25.78-9.27,4.72-8.94,3.45-19.87.04-29.37-3.41-9.5-8.78-18.22-12.28-27.68-7.49-20.27-5.74-43.65,4.71-62.61,8.8-15.98,23.05-28.35,33.53-43.33,9.88-14.13,16.17-32.97,9.34-48.42,16.93,1.46,33.84,6.51,46.54,17.47,14.1,12.16,21.65,32.72,14.66,49.83-4.72,11.55-14.96,19.89-22.54,29.85-8.97,11.79-14.36,26.77-12.16,41.33,2.2,14.56,13,28.19,27.59,31.51,14.58,3.33,31.65-5.8,34.62-20.24,2.45-11.89-4.22-23.85-3.83-35.98.58-18.31,20.14-33.65,38.43-30.13-9.21.66-15.73,10.33-15.49,19.41.24,9.08,5.58,17.29,11.8,24,6.21,6.72,13.49,12.51,19.01,19.79,11.79,15.57,14.17,37.15,7.46,55.4-3.32,9.01-8.7,17.17-15.47,24.06-7.51,7.64-3.17,20.59,7.56,21.89.17.02.33.04.5.05,6.88.59,13.31-3.58,17.96-8.59,4.66-5.01,8.18-10.98,13.06-15.78,8.16-8.01,20.05-12.2,31.53-11.12-48.81,19.19,5.82,83.21-24.05,143.47Z"
  />
</svg>
