<?xml version="1.0" encoding="UTF-8"?>
<svg id="Layer_2" data-name="Layer 2" xmlns="http://www.w3.org/2000/svg" viewBox="0 0 499.35 282.01">
  <defs>
    <style>
      .cls-1 {
        fill: #fff;
      }

      .cls-2 {
        fill: #d42627;
      }
    </style>
  </defs>
  <g id="CustomerRating">
    <g>
      <path class="cls-2" d="M379.02,282.01h-.53c-7.26-4.91-15.2-8.78-23.5-13.25-2.95-1.58-7.1-.61-9.86.83l-22.93,11.98,5.86-26.09c1.01-4.51-.94-7.6-4.38-10.27-6.61-5.14-12.47-10.86-18.33-17.2l25.41-3.51,4.48-8.42,3.36,11.78c1.21-.34,2.58-1.67,2.62-2.66.51-11.08,1.18-24.97,11.24-32.55l3.22,15.62c.77,3.76,5.69,2.98,8.42,2.46,5.64,5.37-2.57,16.77,2.11,19.35,3.2-1.97,4.5-4.89,6.03-8.51,1.9.81,5.65,3.26,7.87,3.66l17.89,3.24-24.27,23.26c2.47,10.67,5.11,20.29,5.3,30.28Z"/>
      <path class="cls-1" d="M499.35,227.21v1l-25.27,20.94,7.46,32.17-28.48-16.99-28.1,16.96,7.48-32.06-24.94-21.57,32.86-2.91,12.96-30.18,12.94,30.38,33.09,2.26ZM453.38,256.91l18.35,10.93-4.64-20.93,16.18-14.22-21.31-1.92-8.77-19.73-8.43,19.59-21.47,2.07,16.15,14.24-4.76,21.01,18.71-11.04Z"/>
      <path class="cls-1" d="M200.36,143.96c-16.22-6.93-15.81-27.96-15.32-43.96l21.82-.08c.7,4.79,1.07,8.99,2.86,13.02s7.57,4.71,11.45,3.78c3.08-.73,7.4-4.97,7.48-9.21l.43-23.37c-14.05,10.73-31.46,8.51-40.88-5.61l-5.79-8.68c1.94-5.09,2.88-9.71,2.88-14.98v-22.13c-.02-10.03,3.11-21.26,12.39-27,12.86-7.96,30.06-7.62,42.54.96,20.04,13.78,5.73,48.89,14.39,62.23,4.32,6.65-2.95,6.79-2.98,17.69l-.1,31.08c-.02,6.12-2.44,12.85-5.62,18-8.05,13.05-31.14,14.44-45.55,8.27ZM227.62,36.31c-1.21-4.28-7.08-5.83-10.84-5.23-3.03.48-8.33,3.85-8.45,7.75-.25,8.3-.21,15.88.18,24.07.25,5.29,6.09,8.26,10.79,8,13.19-.72,10.61-26.5,8.32-34.59Z"/>
      <path class="cls-1" d="M434.21,141.77c-12.95,8.16-30.52,7.46-43.45.73-8.98-4.67-13.17-15.43-13.41-24.78l-.59-22.98,22.75-.07c.05,6.25.44,12.34,3.28,17.59,2.37,4.38,7.29,5.07,11.98,4.09,3.12-.66,7.24-4.51,7.4-9.1l.69-19.6c.18-5.19-1.35-11.26-6.07-14.08-5.11-3.06-11.89-.15-14.92,4.52-2.25,3.48-5.89,4.29-9.53,2.6l-14.52-5.01.02-73.4h66.8s.06,38.07.06,38.07l-19.47.05-3.11-8.64-17.73-.09c-3.34-.02-4.9,3.21-4.84,6.12l.4,18.89c10.05-4.56,21.42-7.11,31.96-1.99,7.65,3.72,13.29,12.85,13.67,21.67.6,13.66.71,26.43.41,40.35-.19,8.79-3.58,19.9-11.79,25.08Z"/>
      <path class="cls-1" d="M126.94,117.18l.44,28.4-39-.34.34-27.88,8.03-2.4c.13-4.41.07-8.08-.22-12.3l-43.56-.02.84-21.21L91.77,2.33l28.31.02-.28,79.48,9.92.73.14,19.66-10.19.38.12,12.24c1.49.92,3.9,1.6,7.15,2.34ZM97.29,82.04l-1-41.14-20.8,41.11,21.8.03Z"/>
      <path class="cls-2" d="M278.23,279.05c.25,1.18-3.67,1.11-4.82.48l-23.63-12.72c-9.9,5.3-18.3,9.81-29.15,14.77l5.84-27.06c.35-1.61-.67-4.73-1.92-5.94l-20.72-20.09,23.85-3.99c2.28-.38,3.92-5.85,5.47-8.14l4.34,12.95c6.29-13-4.69-23.71,13.07-36.93l1.26,8.01c.7,4.47,2.67,8.36,6.02,11.8l2.64-4.67c7.59,7.71,1.35,16.72,2.73,21.33.26.86,3.2.96,3.52.12l3.86-10.21c2.17,2.71,4.36,6.02,6.89,6.44l18.98,3.13-24.05,22.79,5.83,27.93Z"/>
      <path class="cls-2" d="M74.44,281.49l-28.53-15.08c-9.53,5.24-18.31,9.96-28.97,15.06l6.35-30.6L0,228.55l23.97-4c2.67-.45,4.34-6.12,5.52-7.94l4.22,11.77c2.52-1.83,2.62-4.38,2.3-7.09-1.35-11.06,1.66-22,10.67-28.16,1.04,7.1,2.73,13.45,6.98,19.02,1.33-.41,3.16-1.75,5.11-3.2,5.17,7.94-2.37,20.67,2.15,20.72.85.01,2.35-.94,2.75-1.81l2.74-5.92c8.48,3.44,16.36,4.74,26.44,6.31l-23.78,22.35,5.39,30.88Z"/>
      <path class="cls-2" d="M176.14,281.28l-28.6-14.75-28.87,14.85,6.82-30.52c-7.84-9.41-14.56-12.58-23.42-22.55l24.57-3.47,5.15-7.75c.82,4.33,1.36,8.1,4.68,10.98l2.53-17.8c.99-7,3.54-13.34,9.54-17.85l2.51,13.13c.45,2.35,2.89,4.93,4.95,6.37l2.86-4.27c8.39,9.06-1.16,20.83,3.49,21.75,1.02.2,2.98-.99,3.33-2.06l2.69-8.12c7.97,11.81,14.32,3.35,24.25,10.46l-22.85,20.96,6.37,30.64Z"/>
      <path class="cls-1" d="M301.39,144.86c-6.26.62-12.12.71-19.3.44L328.04,2.38h18.94s-45.58,142.48-45.58,142.48Z"/>
      <path class="cls-1" d="M165.44,145.86l-16.36-.62c-1.97-.07-4.98-4.17-6.03-5.54l.09-13.26c.03-3.82,1.61-6.82,4.9-9.05l14.32-.37c4.76,1.69,6.82,4.73,6.91,9.49l.24,13c-.85,1.75-2.27,3.92-4.07,6.35Z"/>
    </g>
  </g>
</svg>