<?xml version="1.0" encoding="UTF-8"?>
<svg id="Layer_2" data-name="Layer 2" xmlns="http://www.w3.org/2000/svg" viewBox="0 0 500.03 206.47">
  <defs>
    <style>
      .cls-1 {
        fill: none;
      }

      .cls-2 {
        fill: #fff;
      }

      .cls-3 {
        fill: #d42627;
      }
    </style>
  </defs>
  <g id="FastShiupping">
    <g>
      <circle class="cls-1" cx="228.54" cy="180.15" r="10.66"/>
      <path class="cls-1" d="M234.8,74.48c2.3-1.89,4.52-6.37,6.01-9.25-18.37,3.92-13.72,1.85-31.16-8.78-9.12-5.56-21.24-4.98-30.11,1.31-6.79,4.82-13.62,6.68-22.78,3.91,9.81,16.52,27.7,6.72,38.36,6.17,10.1-.52,25.14,18.59,39.68,6.64Z"/>
      <path class="cls-1" d="M242.76,44.15c1.17-.8,2.3-1.65,3.39-2.52,3.16-2.51,6.05-5.29,9.01-8.18.27-.26.54-.52.81-.79-11.89-2.72-20.03,7.43-33.39,8.94,4.78,5.82,13.23,7.31,20.17,2.55Z"/>
      <circle class="cls-1" cx="433.84" cy="179.99" r="10.69" transform="translate(-29.75 104.49) rotate(-13.28)"/>
      <path class="cls-1" d="M416.16,64.03l-28.22-.16c-2.68-.02-4.71,2.43-4.71,4.96l.03,24.28c0,3.01,2.61,5.59,5.71,5.56l46.88-.53c-3.93-10.97-7.33-19.76-11.53-29.65-1.26-2.96-4.99-4.68-8.16-4.45Z"/>
      <path class="cls-2" d="M275.03,115.86l42.52-.04c4.81,0,7.33-3.7,7.33-7.79v-35.06c.01-11.15-12.04-4.51-10.97-11.04,1.91-11.71-6.71-22.15-18.35-21.81-11.22.33-19.37,10.24-17.37,21.91.12.71-.15,2.97-.82,3.01l-2.26.13c-4.83.27-7.9,3-7.91,7.83l-.02,35.02c0,4.77,3.05,7.85,7.86,7.84ZM295.99,97.5c-3.83,0-6.93-3.1-6.93-6.93s3.1-6.93,6.93-6.93,6.93,3.1,6.93,6.93-3.1,6.93-6.93,6.93ZM294.57,47.88c4.8-.51,10.2,1.93,11.38,7.32.58,2.64.49,5.73.49,9.97l-21.02-.03c-1.08-8.12,1.17-16.41,9.16-17.25Z"/>
      <path class="cls-3" d="M347.76,12.28l-107.71-.15c-8.11-.01-29.16-10.49-40.02-12.14h-12c-17.16,3.87-17.19,10.7-35.71,4.83,7.71,16.66,20.11,9.17,32.3,9.66,4.01.16,7.84,3.33,8.38,6.04.91,4.6-.38,8.75-4.59,10.8-4.46,2.18-10.18,2.3-14.65-.06l-21.84-11.55c-2.37-1.25-7.94-3.37-10.51-2.58l-18.54,5.72c-7.42,2.29-14.88,1.31-23.26.02,6.44,9.1,17,12.34,27.54,10.59,5.95-.99,19.4-1.09,20.35,6.25.25,1.96-1.34,6.34-3.54,7.25-5.26,2.16-12.19,1.7-17.55-.39l-20.98-8.17c-12.5-4.87-26.5-4.33-37.77,3.51,14.16-.03,27.09,2.47,37.68,10.66,3.21,2.48,5.96,6.13,5.36,10.46-.46,3.33-5.89,6.79-9.27,5.56l-24.3-8.85c-7.31-2.66-14.87-2.2-22.04,1.29l-28.21,13.74c-3.7,1.8-8.82,2.19-12.84,1.37l-14.05-2.84c9.87,12.78,26.74,16.44,41.88,11.51,7.95-2.59,15.66-5.12,24.1-5.3,9.89-.21,24.38,7.95,30.97,7.3l15.56-1.53c-3.45,5.11-9.76,8.68-16.43,8.58l-15.67-.24c10.31,14.6,31.53,15.86,44.14,9.89l20.5-9.72c10.9-5.17,22.95-7.17,34.59-3.48,9.22,2.93,16.74,11.48,12.43,17.99-4.75,7.19-18.2,1.19-24.2-1.21-6.47-2.59-13.6-4.58-20.5-2.67-8.5,2.35-15.58,8.28-19.99,15.55,6.16-.71,11.25-1.67,16.62-1.87,10.89-.39,24.95,6.49,24.06,15.12-.18,1.72-2.2,5.05-4.07,5.48-5,1.16-10.22-.24-14.81-1.95-12.61-4.68-25.85-1.7-34.18,9.17l18.2-1.57c3.65-.31,8.79,3.48,12.03,5.36,8.54,4.95,16.41,8.71,25.83,11.16l-.58,9.58c4.94,6.99,14.42,10.93,23.14,8.52,1.52-19.7,14.07-33.15,34.49-33.17l119.45-.09c5.94,0,10.92-4.68,10.92-10.76V23.05c0-6.05-4.88-10.76-10.73-10.77ZM234.8,74.48c-14.54,11.95-29.58-7.16-39.68-6.64-10.66.55-28.55,10.35-38.36-6.17,9.16,2.77,15.99.91,22.78-3.91,8.87-6.29,20.99-6.87,30.11-1.31,17.44,10.63,12.8,12.7,31.16,8.78-1.49,2.88-3.71,7.36-6.01,9.25ZM222.58,41.6c13.36-1.52,21.49-11.66,33.39-8.94-.27.27-.54.53-.81.79-2.96,2.89-5.85,5.67-9.01,8.18-1.1.87-2.22,1.72-3.39,2.52-6.95,4.76-15.4,3.27-20.17-2.55ZM324.88,108.03c0,4.09-2.52,7.78-7.33,7.79l-42.52.04c-4.81,0-7.86-3.08-7.86-7.84l.02-35.02c0-4.83,3.08-7.56,7.91-7.83l2.26-.13c.67-.04.94-2.29.82-3.01-1.99-11.67,6.15-21.57,17.37-21.91,11.65-.35,20.26,10.1,18.35,21.81-1.06,6.52,10.99-.11,10.98,11.04v35.06Z"/>
      <path class="cls-3" d="M498.81,157.04l-7.2-5.08-.16-33.12c-.02-3.42-1.94-10.38-5.67-11.39l-34.07-9.27c-1.73-2.07-3.9-5.31-5.03-7.82-5.05-11.19-9.71-21.85-15.64-32.56-2.41-4.36-9.34-5.72-13.86-5.74l-41.23-.22c-3.16-.02-7.12,2.6-7.12,6.21l-.06,85.89c0,5.4-4.57,10.55-10.16,10.56l-104.96.09c1.62,3.38,3.42,6.23,4.51,9l6.24,15.89h133.7c2.31-7.91,4.24-15.15,9.19-21.43,8.66-11,23.52-15.08,37-11,12.53,3.79,22.09,14.62,24.02,28.72.17,1.28,2.44,3.98,3.72,3.99l17.88.08c5.24.02,8.34-2.62,10.14-6.9v-4.91c-1.09-3.14-.96-6.72-1.22-10.96ZM388.98,98.66c-3.11.04-5.71-2.55-5.71-5.56l-.03-24.28c0-2.53,2.03-4.98,4.71-4.96l28.22.16c3.18-.23,6.91,1.49,8.16,4.45,4.2,9.89,7.59,18.69,11.53,29.65l-46.88.53Z"/>
      <path class="cls-3" d="M228.61,153.7c-14.57,0-26.38,11.81-26.38,26.38s11.81,26.38,26.38,26.38,26.38-11.81,26.38-26.38-11.81-26.38-26.38-26.38ZM228.54,190.82c-5.89,0-10.66-4.77-10.66-10.66s4.77-10.66,10.66-10.66,10.66,4.77,10.66,10.66-4.77,10.66-10.66,10.66Z"/>
      <path class="cls-3" d="M433.72,153.71c-14.57,0-26.38,11.81-26.38,26.38s11.81,26.38,26.38,26.38,26.38-11.81,26.38-26.38-11.81-26.38-26.38-26.38ZM433.84,190.68c-5.91,0-10.69-4.79-10.69-10.69s4.79-10.69,10.69-10.69,10.69,4.79,10.69,10.69-4.79,10.69-10.69,10.69Z"/>
      <path class="cls-3" d="M119.44,126.59c-6.15-10.14-20.04-12.75-29.95-6.12-6.76,4.53-13.82,6.25-22.7,5.58,7.73,10.51,22.44,12.99,33.1,5.49,5.93-4.18,12.2-5.02,19.55-4.95Z"/>
      <path class="cls-3" d="M80,109.25l-10.4-9.9c-7.09-6.75-18.07-6.88-24.88.53,13.88,2.47,23.42,15.05,35.28,9.37Z"/>
      <path class="cls-3" d="M40.79,54.73l10.83-1.49c-.96-5.46-5.48-8.42-10.66-8l-18.12,1.46c3.59,6.03,10.77,9.03,17.95,8.04Z"/>
      <path class="cls-3" d="M306.43,65.16c0-4.24.09-7.33-.49-9.97-1.18-5.38-6.58-7.82-11.38-7.32-7.99.84-10.24,9.13-9.16,17.25l21.02.03Z"/>
      <circle class="cls-3" cx="295.99" cy="90.57" r="6.93"/>
    </g>
  </g>
</svg>