<?xml version="1.0" encoding="UTF-8"?>
<svg id="Layer_2" data-name="Layer 2" xmlns="http://www.w3.org/2000/svg" viewBox="0 0 284.89 379.68">
  <defs>
    <style>
      .cls-1 {
        fill: #fff;
      }

      .cls-2 {
        fill: #d42627;
      }
    </style>
  </defs>
  <g id="MadeInUSA">
    <g>
      <polygon class="cls-1" points="150.39 154.95 142.39 136.62 134.37 155 114.61 156.87 129.57 170.18 125.15 189.6 142.71 179.41 159.55 189.8 155.29 170.09 170.22 156.85 150.39 154.95"/>
      <path class="cls-1" d="M236.75,216.52c-.38.92-.99,2.88-1.13,4.08-1.78,15.88-16.55,2.96-19.37,20.41l-7.7,2.44c-1.62,6.66-7.78,11.38-14.46,11,.62-4.54.98-8.65-.22-11.37l-3.18.33c-1.14.12.55-3.23-1.39-7.61-.4-.91-3.04-1.6-3.98-1.19-2.28,1-5.19,5.53-5.04,8.2l.56,9.98c.05.92-1.4,2.74-2.17,3.06-4.84,2.05-2.77-17.19-2.56-19.68l8.58-3.97c0-.36-2.52-1.82-3.5-1.79l-21.1.78,3.63-6.54c-21.44-7.26-32.38-3.01-54.12-5.87-17.82-2.35-34.99-5.81-52.37-9.17-3.2,1.48-6.97,2.39-10.25,2.16-.64,16.97-12.44,30.71-9.18,46.22,1.61,7.67,3.21,16.09,7.26,22.85,3.28,5.47,8.61,12.36,14.1,14.91l13.12,6.1c27.61,12.83,24.46-5.23,36.07,14.87,1.31,2.28,3.26,4.78,5.54,3.87,2.03-.81,7.47-3.04,8.66-1.22l7.67,11.64c1.97,2.99,4.69,5.34,7.87,7.21l2.61-9.2c19.67-22,31.99.35,33.84-13.45,7.94-2.15,16.69-2.35,25.57-.64,6.97,1.35,3.14,16.7,18.4,20.13.51-4.93-.89-9.33-3.01-13.53l-6.22-12.32c-1.21-2.39.78-8.04,2.66-10.3l17.24-20.75c-2.49-4.04-4.34-6.82-6.18-11.33,1.91,1.62,2.33,2.28,4.01,4.21,2.26-13.64-.93-18.54,12.52-26.16-5.05-12.79,2.9-11.44,8.09-19.59l-5.76-9.81c-.6-1.03-4.65-.06-5.1,1.04Z"/>
      <path class="cls-2" d="M273.09,193.89c-10.11-22.72-24.38-38.15-35.2-60.61-1.16-2.41-2.49-4.31-4.81-5.79-1.63,6.39-2.97,12.67-2.48,18.92l1.88,23.97c.4,5.08-1.53,10.78-4.93,14.25-4.85,4.96-12.19,4.7-16.72-.26-4.64-5.08-7.73-12.03-6.58-19.13l5.25-32.47c4.14-25.59-8.46-50.02-30.92-62.32,1.96,7.88,5.07,25.92-1.62,30.43-16.17,10.91-31.93-12.38-38.44-24.46-10.66-19.8-13.85-42.21-7.31-63.83,1.31-4.31,2.23-8,3.28-12.6-9.7,3.18-24.04,19.26-31.47,27.23-18.74,20.09-28.94,53.24-23.36,80.87l7.19,35.64c1.42,7.05.69,15-.88,22.1-1.53,6.9-8.98,14.28-16.21,12.74-6.52-1.39-8.81-10.45-8.76-16.1l.19-23.93c.12-14.98-6.64-23.64-18.47-32.91,1.69,13.5,3.72,25.31-2.07,37.02l-28.91,58.43c-3.53,7.14-5.39,14.73-8.01,22.19C-.08,234.1-.56,250.15.48,262.09c1.9,21.89,10.13,42.28,23.02,59.69,4.08,5.51,8.62,10.73,13.59,15.59.81.79,1.62,1.57,2.44,2.34,26.2,24.48,59.67,37.05,94.78,39.96h16.94c18.68-2.31,37.45-5.06,54.73-14.12,15.5-8.13,25.75-14.03,38.65-25.84.23-.21.45-.41.68-.62,5.4-4.99,10.33-10.41,14.76-16.17,14.28-18.61,23.19-40.91,24.58-64.82,1.31-22.38-2.57-44.03-11.55-64.21ZM159.55,189.8l-16.84-10.39-17.57,10.18,4.42-19.41-14.96-13.31,19.76-1.87,8.03-18.38,7.99,18.33,19.83,1.9-14.93,13.24,4.26,19.71ZM239.52,244.88c-13.45,7.62-10.27,12.52-12.52,26.16-1.68-1.93-2.1-2.58-4.01-4.21,1.84,4.51,3.69,7.29,6.18,11.33l-17.24,20.75c-1.88,2.26-3.86,7.91-2.66,10.3l6.22,12.32c2.12,4.2,3.52,8.6,3.01,13.53-15.26-3.43-11.43-18.78-18.4-20.13-8.88-1.71-17.62-1.51-25.57.64-1.84,13.8-14.17-8.55-33.84,13.45l-2.61,9.2c-3.18-1.88-5.9-4.22-7.87-7.21l-7.67-11.64c-1.2-1.82-6.64.41-8.66,1.22-2.27.91-4.22-1.59-5.54-3.87-11.6-20.1-8.46-2.04-36.07-14.87l-13.12-6.1c-5.49-2.55-10.82-9.44-14.1-14.91-4.05-6.76-5.65-15.18-7.26-22.85-3.26-15.51,8.54-29.25,9.18-46.22,3.28.23,7.05-.68,10.25-2.16,17.38,3.36,34.55,6.82,52.37,9.17,21.74,2.87,32.68-1.39,54.12,5.87l-3.63,6.54,21.1-.78c.98-.04,3.49,1.43,3.5,1.79l-8.58,3.97c-.21,2.49-2.28,21.73,2.56,19.68.77-.33,2.22-2.15,2.17-3.06l-.56-9.98c-.15-2.67,2.76-7.2,5.04-8.2.94-.41,3.57.28,3.98,1.19,1.94,4.38.25,7.73,1.39,7.61l3.18-.33c1.2,2.73.84,6.84.22,11.37,6.67.38,12.84-4.34,14.46-11l7.7-2.44c2.83-17.45,17.59-4.53,19.37-20.41.14-1.2.75-3.16,1.13-4.08.46-1.1,4.5-2.07,5.1-1.04l5.76,9.81c-5.19,8.15-13.14,6.8-8.09,19.59Z"/>
    </g>
  </g>
</svg>