<?xml version="1.0" encoding="UTF-8"?>
<svg id="Layer_2" data-name="Layer 2" xmlns="http://www.w3.org/2000/svg" viewBox="0 0 271.95 417.27">
  <defs>
    <style>
      .cls-1 {
        fill: #fff;
      }

      .cls-2 {
        fill: #d42627;
      }
    </style>
  </defs>
  <g id="CommercialWarranty">
    <g>
      <path class="cls-2" d="M271.95,133.71v88.65l-1.53,30.64c-1.66,33.2-19.97,71.89-41.9,96.36-28.49,31.79-53.48,49.64-92.16,67.91-35.17-17-53.7-28.67-81.06-55.8C15.99,322.49,2.2,278.47.3,224.06c-.38-10.92-.46-21.22.12-32.14.93-17.72.62-35.37.27-53.29-.12-6.43,1.33-11.59,8.3-13.2l58.03-13.38c1.83-2.66,3.32-5.8,4.11-8.76,7.86-29.54,17.11-26.51,19.1-52.85,12.64,8.82,5.38,26.13,10.83,30.59,2.43,1.99,6.26-.98,7.49-2.79,1.44-2.13,1.85-4.97,1.33-7.72-3.24-17.15-8.83-38.32,3.87-53.37,5.27-6.25,10.45-11.42,16.42-17.15,1.39,4.37,1.19,8.16.32,11.76-3.07,12.8.39,24.3,9.88,33.17,3.14,2.93,7.97,5.3,11.78,1.51l1.44-12.11c13.88,5.43,16.89,22.46,13.17,35.63-1.05,3.71-.83,8.48.24,12.13.84,2.88,4.06,4.46,6.44,4.06,2.14-.36,4.5-3.18,4.49-5.73l-.08-22c4.41-.18,20.39,31.6,22.52,36.7,2.23,5.37,2.47,10.72,4.22,16.22l56.64,13.85c5.35,1.31,8.75,3.52,10.74,8.51ZM162.15,383.12c20.57-14.46,38.3-30.75,54.38-49.51,23.35-27.92,32.43-51.09,37.37-87.36l.27-96.69c.02-5.35-5.17-9.09-9.39-10.38l-32.64-7.62c-12.46-2.91-24.64-6.24-36.37-11.35l-33.95-14.76c-4.23-1.84-8.74-.92-12.72.92-19.07,8.8-37.85,17.29-58.28,22.29l-41.87,10.25c-5.32,1.3-9.98,5.69-10.01,11.6l-.41,79.55c-.13,25.32,6.13,49.47,16.1,72.39,7.78,17.89,19.02,32.29,33.4,45.33,18.46,16.74,38.42,30.7,59.31,44.18,5.45,3.52,10.61,4.23,16.58,1.33s12.12-5.89,18.23-10.19Z"/>
      <path class="cls-1" d="M230.37,294.42c-13.53,30.28-61.93,78.85-94.25,90.95-21.86-13.63-42.27-28.02-61.32-45.18-13.77-12.4-24.39-26.26-31.62-43.47-9.4-22.36-14.79-45.82-14.67-70.37l.39-76.83,44.01-10.91c22.28-5.52,42.41-14.79,63.57-24.3l36.97,15.91c12.38,5.33,25.19,8.58,38.28,11.67l32.42,7.64-.43,91.84c-.09,18.57-5.94,36.44-13.36,53.06ZM83.72,174.26c1.84-3,1.39-3.71,2.2-6.78l4.12-15.56c.18-1.22-3.51-2.51-4.57-1.92-.91.51-2.29,2.14-2.69,3.3l-3.95,11.46-4.43-12.75c-.39-1.13-3.01-2.13-4.09-2.23-5.51-.51-.03,10.18,1.54,17.86,2.84,14,3-2.89,3.19,19.84.02,1.88.29,4.28,1.42,4.8s4.47.67,5.26-.29c2.18-2.65-.91-12.96,2.01-17.74ZM102.88,174.71l7.57-.88c1.61-.19,1.65-5.69.01-5.9l-7.5-.95.07-9.65,8.72-.2c2.21-.05,4.02-1.94,3.89-4.06-.08-1.35-2.35-3.38-3.85-3.32l-15.89.61c-.31,6.63-.22,11.3-.89,16.94-.34,2.82-.25,4.37.05,7.26.62,5.95.54,11.18.83,17.81l15.89.48c2.06.06,3.95-1.74,3.88-3.89-.06-1.77-1.88-3-3.95-3.1l-8.77-.43-.06-10.72ZM135.43,177.05c.23,6.33.27,9.6.68,14.17.21,2.32,6.89,1.91,6.97-.59.19-6.02-.02-11.49.81-16.9.41-2.68.37-3.57-.12-6.47-1.17-6.98,1.23-17.29-5.51-17.28h-13.61c-6.46.02-3.59,9.89-4.92,17.06-.57,3.06-.57,4.22-.1,7.23.81,5.2.5,11.66.95,17.05.15,1.83,6.53,1.74,6.59-.04l.54-14.42,7.7.2ZM166.35,191.86c.42,1.31,6.03.79,6.33-.52l-3.17-13.35c3.09-1.95,3.14-4.21,3.75-7.65l1.23-6.96-1.19-7.88c-.44-2.94-1.92-5.67-5.05-5.62l-17.36.29-1.16,17.81c-.15,2.32-.23,3.43.09,5.97.69,5.47.57,11.44.94,17.35.11,1.71,6.44,1.89,6.52.02l.44-11.06c.04-1,1.17-3.07,2.11-2.93.75.12,2.31,1.5,2.54,2.22l4,12.32ZM199.06,192.74c5.81.07,5.11-14.99,5.47-12.39l-1.12-8c-.29-2.08-2.05-4.37-4.03-4.41l-11.48-.21.21-10.14c1.98-.67,6.4-1.08,7.37.3,1.04,1.5,1.64,3.75,2.79,4.02,1.29.3,3.84.3,4.42-.72,1.36-2.4,1.18-8.11-.54-9.87-.7-.72-2.91-1.4-4.04-1.39l-12.59.08c-2.75.02-5,2.79-4.97,5.46s-1.42,5.95-1.14,7.78l1.15,7.43c.27,1.76,2.55,4,4.37,4.03l11.18.18-.21,10.31c-1.68,1.19-6.86,1.07-7.53-.64-.97-2.49-2.41-4.28-4.58-4.01-2.31.29-3.39,2.22-3.52,4.92s.92,7.05,3.74,7.08l15.04.18ZM97.09,348.07l79.05-.03v-45.08s-24.19-.1-24.19-.1l-.05,15.98-28.12-.09c3.04-16.15,15.52-26.25,29.5-32.14,3.8-12.8,13.24-14.33,17.64-26.44s4.47-25.69.66-38.17c-6.83-22.39-35.71-25.23-54.1-18.53-23.33,8.49-19.67,30.8-20.46,51.01l26.37.09.33-15.15c.1-4.46,4.41-9.37,8.22-10.31s9.77-.09,11.9,3.47c5.59,9.35,3.27,20.55-3.91,28.18-4.18,4.45-9.37,6.74-15.3,8.99l-1.97,7.53-14.03,15.01c-7.65,8.19-11.43,19.23-11.46,30.4l-.07,25.37Z"/>
      <polygon class="cls-1" points="135.67 169.51 127.57 169.54 127.53 157.28 135.52 157.32 135.67 169.51"/>
      <path class="cls-1" d="M166.07,170.42l-8.34-.13-.02-12.66c2.64-.37,5.54-.36,8.28-.1l.08,12.9Z"/>
    </g>
  </g>
</svg>